<svg xmlns="http://www.w3.org/2000/svg" viewBox="0 0 777.49 400.65">
  <defs>
    <style>
      .a {
        fill: #38383d;
      }

      .b {
        fill: #f3a5a6;
      }
    </style>
  </defs>
  <title>willhaben_logo</title>
  <g>
    <path class="a" d="M641.89,0H135.6C60.83,0,0,61.6,0,137.31s60.83,137.3,135.6,137.3h44.61l-28.56,43.85a50.43,50.43,0,0,0-7.25,38.38,55.51,55.51,0,0,0,53.92,43.83,52,52,0,0,0,43.73-23.21l68.2-102.85H642.19a133.68,133.68,0,0,0,95.2-39.71,136.75,136.75,0,0,0,40.1-97.61C777.49,61.6,716.66,0,641.89,0Z" transform="translate(0 -0.01)"/>
    <path class="a" d="M642.19,37.21H135.6c-54.4,0-98.3,44.7-98.3,100.1s43.9,100.1,98.3,100.1H641.89c54.4,0,98.3-44.7,98.3-100.1C740.19,82.21,696.29,37.21,642.19,37.21Z" transform="translate(0 -0.01)"/>
  </g>
  <path class="b" d="M641.89,7H135.6C64.7,7,7,65.41,7,137.31s57.7,130.3,128.6,130.3h57.53l-35.63,54.7c-13.8,20.8-7.1,49.3,14.7,63.5,21.6,14.2,50.3,8.6,64-12.2l70.3-106H642.19c70.8,0,128.5-58.4,128.3-130.3C770.49,65.41,712.79,7,641.89,7Zm0,200.5H135.6c-37.3,0-67.8-31.5-67.8-69.9,0-38.7,30.5-69.9,67.8-69.9H641.89c37.3,0,67.8,31.5,67.8,69.9C709.69,176.31,679.19,207.51,641.89,207.51Z" transform="translate(0 -0.01)"/>
  <g>
    <path class="b" d="M201.9,167.51H181.3l-5.1-23.1a122,122,0,0,1-2.3-15.8h0a101.21,101.21,0,0,1-2.3,15l-5.3,23.9H147l-14.7-61.7h18l5.6,25.2a102.44,102.44,0,0,1,2,13.5h0a109.42,109.42,0,0,1,2.3-13.2l6.6-25.4h17l6.1,24.6a82.5,82.5,0,0,1,2.5,13.5h0c.8-5.3,1.5-10.2,2.5-14.2l5.1-23.9h17Z" transform="translate(0 -0.01)"/>
    <path class="b" d="M227.6,167.51v-61.7h17v61.7Z" transform="translate(0 -0.01)"/>
    <path class="b" d="M259.8,167.51v-61.7h17v46.7h17v15.2h-34Z" transform="translate(0 -0.01)"/>
    <path class="b" d="M305.79,167.51v-61.7h17v46.7h17v15.2h-34Z" transform="translate(0 -0.01)"/>
    <path class="b" d="M387.09,167.51v-24.4h-18.5v24.4h-17v-61.7h17v22.6h18.5v-22.6h17v61.7Z" transform="translate(0 -0.01)"/>
    <path class="b" d="M455.89,167.51l-3.3-10.2h-19.1l-3,10.2h-16.8l20.1-61.7h19.6l21.1,61.7Zm-9.9-31c-1-3.6-2.3-6.9-2.8-10.7h-.3a87.67,87.67,0,0,1-3,11.7l-2,6.9h10.7Z" transform="translate(0 -0.01)"/>
    <path class="b" d="M505.49,167.81c-3.8,0-10.9-.3-21.3-.3V106c6.1-.3,17-.5,24.6-.5,13.5,0,21.8,5.1,21.8,16a15.06,15.06,0,0,1-7.9,13v.3c5.3,1.8,8.9,7.4,8.9,13.5C531.59,158.91,523,167.81,505.49,167.81Zm.5-48.5a22.74,22.74,0,0,0-4.8.3v10.2h3.6c5.3,0,7.9-2.3,7.9-5.8C512.59,120.81,510.09,119.31,506,119.31Zm-.5,23.1h-4.3v11.2c1,0,3,.3,4.3.3,4.6,0,7.6-2,7.6-5.8.3-3.2-2.3-5.7-7.6-5.7Z" transform="translate(0 -0.01)"/>
    <path class="b" d="M543.29,167.51v-61.7h36.1v14.5h-19.1v8.6h18v14h-18v9.9h19.1v14.7Z" transform="translate(0 -0.01)"/>
    <path class="b" d="M626.19,167.51l-10.4-21.1a145.92,145.92,0,0,1-6.1-14c.3,3.6.5,5.8.5,9.7v25.2h-16.3v-61.5h21.8l8.9,18.3c2.5,5.6,5.3,11.2,7.4,16a114.85,114.85,0,0,1-.8-12.7v-21.6h16.3v61.7Z" transform="translate(0 -0.01)"/>
  </g>
</svg>
